<?xml version="1.0" encoding="UTF-8" standalone="no"?>
<!DOCTYPE svg PUBLIC "-//W3C//DTD SVG 1.1//EN" "http://www.w3.org/Graphics/SVG/1.1/DTD/svg11.dtd">
<svg width="100%" height="100%" viewBox="0 0 322 249" version="1.1" xmlns="http://www.w3.org/2000/svg" xmlns:xlink="http://www.w3.org/1999/xlink" xml:space="preserve" xmlns:serif="http://www.serif.com/" style="fill-rule:evenodd;clip-rule:evenodd;stroke-linecap:round;stroke-linejoin:round;stroke-miterlimit:1.5;">
    <g id="Plan-de-travail1" serif:id="Plan de travail1" transform="matrix(0.967794,0,0,0.978925,-20.1131,-18.6091)">
        <rect x="20.782" y="19.01" width="332.644" height="254.17" style="fill:none;"/>
        <g transform="matrix(1.03328,0,0,1.02153,-10.9528,-5.87118)">
            <path d="M259.547,57.541L123.017,57.541L56.782,244.289L325.782,244.289L259.547,57.541Z" style="fill:rgb(235,235,235);stroke:rgb(189,189,189);stroke-width:4px;"/>
        </g>
        <g transform="matrix(1.03328,0,0,1.21038,-10.9528,-33.3034)">
            <path d="M191.282,57.541L191.282,244.289" style="fill:none;stroke:rgb(125,125,125);stroke-width:1.82px;stroke-dasharray:1.82,3.65,0,0;"/>
        </g>
        <g transform="matrix(1.02209,0,0,1.02153,-8.81225,-5.87118)">
            <g transform="matrix(1.01095,-0,-0,1,28.9551,24.3566)">
                <path d="M156.154,36.185L159.154,33.185L156.154,30.185" style="fill:none;stroke:rgb(56,137,255);stroke-width:2px;stroke-linejoin:miter;stroke-miterlimit:10;"/>
                <path d="M97.733,36.185L94.733,33.185L97.733,30.185" style="fill:none;stroke:rgb(56,137,255);stroke-width:2px;stroke-linejoin:miter;stroke-miterlimit:10;"/>
                <path d="M159.154,33.185L94.733,33.185" style="fill:none;stroke:rgb(56,137,255);stroke-width:2px;"/>
            </g>
        </g>
        <g transform="matrix(2.04417,0,0,1.02153,-204.319,184.897)">
            <g transform="matrix(0.505474,-0,-0,1,110.118,-162.391)">
                <path d="M156.154,222.933L159.154,219.933L156.154,216.933" style="fill:none;stroke:rgb(56,137,255);stroke-width:2px;stroke-linejoin:miter;stroke-miterlimit:10;"/>
                <path d="M30.483,222.933L27.483,219.933L30.483,216.933" style="fill:none;stroke:rgb(56,137,255);stroke-width:2px;stroke-linejoin:miter;stroke-miterlimit:10;"/>
                <path d="M159.154,219.933L27.483,219.933" style="fill:none;stroke:rgb(56,137,255);stroke-width:2px;"/>
            </g>
        </g>
        <g transform="matrix(1.03328,0,0,1.02153,-1.65431,-5.87118)">
            <g transform="matrix(1,-0,-0,1,21.7141,24.3566)">
                <path d="M172.568,37.599L169.568,34.599L166.568,37.599" style="fill:none;stroke:rgb(67,181,80);stroke-width:2px;stroke-linejoin:miter;stroke-miterlimit:10;"/>
                <path d="M172.568,215.519L169.568,218.519L166.568,215.519" style="fill:none;stroke:rgb(67,181,80);stroke-width:2px;stroke-linejoin:miter;stroke-miterlimit:10;"/>
                <path d="M169.568,34.599L169.568,218.519" style="fill:none;stroke:rgb(67,181,80);stroke-width:2px;"/>
            </g>
        </g>
        <g transform="matrix(1.03328,0,0,1.02153,-10.9528,-5.87118)">
            <g transform="matrix(12,0,0,12,217.785,145.758)">
                <path d="M0.442,-0.698L0.442,-0L0.364,-0L0.36,-0.032C0.336,-0.018 0.312,-0.007 0.287,0C0.262,0.008 0.239,0.012 0.218,0.012C0.179,0.012 0.146,0.003 0.119,-0.015C0.092,-0.032 0.071,-0.058 0.057,-0.091C0.042,-0.124 0.035,-0.162 0.035,-0.207C0.035,-0.258 0.045,-0.301 0.065,-0.338C0.084,-0.375 0.111,-0.403 0.145,-0.422C0.179,-0.441 0.218,-0.45 0.261,-0.45C0.29,-0.45 0.321,-0.446 0.356,-0.437L0.356,-0.688L0.442,-0.698ZM0.127,-0.209C0.127,-0.159 0.137,-0.122 0.157,-0.098C0.177,-0.074 0.205,-0.062 0.242,-0.062C0.281,-0.062 0.319,-0.073 0.356,-0.095L0.356,-0.367C0.326,-0.377 0.297,-0.382 0.268,-0.382C0.241,-0.382 0.217,-0.376 0.196,-0.364C0.174,-0.351 0.158,-0.332 0.146,-0.306C0.133,-0.28 0.127,-0.248 0.127,-0.209Z" style="fill:rgb(67,181,80);fill-rule:nonzero;"/>
            </g>
            <g transform="matrix(12,0,0,12,223.929,145.758)">
                <path d="M0.112,-0.527C0.101,-0.527 0.091,-0.53 0.082,-0.536C0.073,-0.541 0.065,-0.549 0.059,-0.558C0.054,-0.567 0.051,-0.577 0.051,-0.588C0.051,-0.599 0.054,-0.61 0.059,-0.619C0.065,-0.628 0.073,-0.636 0.082,-0.642C0.091,-0.647 0.101,-0.65 0.112,-0.65C0.123,-0.65 0.134,-0.647 0.143,-0.642C0.152,-0.636 0.16,-0.628 0.166,-0.619C0.171,-0.61 0.174,-0.599 0.174,-0.588C0.174,-0.577 0.171,-0.567 0.166,-0.558C0.16,-0.549 0.152,-0.541 0.143,-0.536C0.134,-0.53 0.123,-0.527 0.112,-0.527ZM0.07,-0L0.07,-0.438L0.156,-0.448L0.156,-0L0.07,-0Z" style="fill:rgb(67,181,80);fill-rule:nonzero;"/>
            </g>
            <g transform="matrix(12,0,0,12,226.641,145.758)">
                <path d="M0.213,0.012C0.174,0.012 0.138,0.007 0.107,-0.003C0.076,-0.012 0.047,-0.027 0.02,-0.047L0.058,-0.108C0.107,-0.073 0.157,-0.056 0.21,-0.056C0.24,-0.056 0.263,-0.061 0.279,-0.071C0.295,-0.082 0.303,-0.097 0.303,-0.117C0.303,-0.133 0.296,-0.147 0.281,-0.159C0.267,-0.17 0.242,-0.181 0.206,-0.19L0.175,-0.198C0.128,-0.21 0.094,-0.226 0.073,-0.246C0.051,-0.265 0.04,-0.291 0.04,-0.324C0.04,-0.349 0.047,-0.371 0.061,-0.39C0.075,-0.408 0.095,-0.423 0.119,-0.434C0.145,-0.445 0.173,-0.45 0.204,-0.45C0.234,-0.45 0.263,-0.447 0.291,-0.44C0.318,-0.433 0.346,-0.421 0.375,-0.404L0.34,-0.343C0.313,-0.358 0.289,-0.368 0.269,-0.374C0.249,-0.379 0.228,-0.382 0.205,-0.382C0.181,-0.382 0.162,-0.377 0.149,-0.368C0.135,-0.358 0.128,-0.345 0.128,-0.329C0.128,-0.315 0.134,-0.304 0.145,-0.297C0.156,-0.289 0.175,-0.281 0.202,-0.274L0.233,-0.266C0.271,-0.256 0.302,-0.245 0.325,-0.232C0.347,-0.219 0.364,-0.204 0.375,-0.187C0.386,-0.169 0.391,-0.148 0.391,-0.123C0.391,-0.096 0.384,-0.073 0.371,-0.053C0.357,-0.032 0.337,-0.016 0.31,-0.005C0.283,0.006 0.251,0.012 0.213,0.012Z" style="fill:rgb(67,181,80);fill-rule:nonzero;"/>
            </g>
            <g transform="matrix(12,0,0,12,231.573,145.758)">
                <path d="M0.347,-0.016C0.312,0.003 0.276,0.012 0.237,0.012C0.196,0.012 0.163,0 0.139,-0.024C0.115,-0.047 0.103,-0.083 0.103,-0.13L0.103,-0.37L0.015,-0.37L0.015,-0.438L0.103,-0.438L0.103,-0.537L0.189,-0.551L0.189,-0.438L0.337,-0.438L0.328,-0.37L0.189,-0.37L0.189,-0.144C0.189,-0.088 0.21,-0.06 0.251,-0.06C0.263,-0.06 0.275,-0.061 0.286,-0.064C0.297,-0.067 0.31,-0.071 0.323,-0.077L0.347,-0.016Z" style="fill:rgb(67,181,80);fill-rule:nonzero;"/>
            </g>
            <g transform="matrix(12,0,0,12,235.917,145.758)">
                <rect x="0.05" y="0.077" width="0.44" height="0.076" style="fill:rgb(67,181,80);fill-rule:nonzero;"/>
            </g>
            <g transform="matrix(12,0,0,12,242.397,145.758)">
                <path d="M0.303,-0.45C0.342,-0.45 0.374,-0.441 0.4,-0.422C0.426,-0.403 0.445,-0.377 0.458,-0.344C0.471,-0.311 0.477,-0.273 0.477,-0.232C0.477,-0.174 0.465,-0.127 0.44,-0.091C0.414,-0.054 0.383,-0.028 0.345,-0.012C0.307,0.004 0.268,0.012 0.227,0.012C0.182,0.012 0.13,0.002 0.07,-0.017L0.07,-0.688L0.156,-0.698L0.156,-0.411C0.203,-0.437 0.252,-0.45 0.303,-0.45ZM0.224,-0.059C0.271,-0.059 0.31,-0.073 0.34,-0.1C0.37,-0.127 0.385,-0.171 0.385,-0.234C0.385,-0.279 0.376,-0.314 0.359,-0.339C0.342,-0.364 0.315,-0.376 0.279,-0.376C0.24,-0.376 0.199,-0.366 0.156,-0.347L0.156,-0.067C0.181,-0.062 0.204,-0.059 0.224,-0.059Z" style="fill:rgb(67,181,80);fill-rule:nonzero;"/>
            </g>
            <g transform="matrix(12,0,0,12,248.541,145.758)">
                <path d="M0.249,-0.45C0.3,-0.45 0.339,-0.438 0.365,-0.415C0.39,-0.392 0.403,-0.355 0.403,-0.305L0.403,-0L0.325,-0L0.32,-0.038C0.274,-0.005 0.221,0.012 0.161,0.012C0.136,0.012 0.113,0.007 0.093,-0.003C0.073,-0.012 0.058,-0.026 0.047,-0.043C0.035,-0.061 0.03,-0.081 0.03,-0.104C0.03,-0.141 0.043,-0.171 0.069,-0.196C0.095,-0.22 0.13,-0.238 0.173,-0.249C0.216,-0.26 0.264,-0.267 0.317,-0.268L0.317,-0.29C0.317,-0.32 0.311,-0.342 0.299,-0.356C0.287,-0.369 0.267,-0.376 0.238,-0.376C0.189,-0.376 0.139,-0.359 0.086,-0.324L0.048,-0.384C0.112,-0.428 0.179,-0.45 0.249,-0.45ZM0.122,-0.113C0.122,-0.096 0.127,-0.083 0.138,-0.074C0.148,-0.065 0.163,-0.061 0.184,-0.061C0.229,-0.061 0.274,-0.074 0.317,-0.101L0.317,-0.205C0.259,-0.202 0.212,-0.193 0.176,-0.178C0.14,-0.163 0.122,-0.141 0.122,-0.113Z" style="fill:rgb(67,181,80);fill-rule:nonzero;"/>
            </g>
            <g transform="matrix(12,0,0,12,254.157,145.758)">
                <path d="M0.213,0.012C0.174,0.012 0.138,0.007 0.107,-0.003C0.076,-0.012 0.047,-0.027 0.02,-0.047L0.058,-0.108C0.107,-0.073 0.157,-0.056 0.21,-0.056C0.24,-0.056 0.263,-0.061 0.279,-0.071C0.295,-0.082 0.303,-0.097 0.303,-0.117C0.303,-0.133 0.296,-0.147 0.281,-0.159C0.267,-0.17 0.242,-0.181 0.206,-0.19L0.175,-0.198C0.128,-0.21 0.094,-0.226 0.073,-0.246C0.051,-0.265 0.04,-0.291 0.04,-0.324C0.04,-0.349 0.047,-0.371 0.061,-0.39C0.075,-0.408 0.095,-0.423 0.119,-0.434C0.145,-0.445 0.173,-0.45 0.204,-0.45C0.234,-0.45 0.263,-0.447 0.291,-0.44C0.318,-0.433 0.346,-0.421 0.375,-0.404L0.34,-0.343C0.313,-0.358 0.289,-0.368 0.269,-0.374C0.249,-0.379 0.228,-0.382 0.205,-0.382C0.181,-0.382 0.162,-0.377 0.149,-0.368C0.135,-0.358 0.128,-0.345 0.128,-0.329C0.128,-0.315 0.134,-0.304 0.145,-0.297C0.156,-0.289 0.175,-0.281 0.202,-0.274L0.233,-0.266C0.271,-0.256 0.302,-0.245 0.325,-0.232C0.347,-0.219 0.364,-0.204 0.375,-0.187C0.386,-0.169 0.391,-0.148 0.391,-0.123C0.391,-0.096 0.384,-0.073 0.371,-0.053C0.357,-0.032 0.337,-0.016 0.31,-0.005C0.283,0.006 0.251,0.012 0.213,0.012Z" style="fill:rgb(67,181,80);fill-rule:nonzero;"/>
            </g>
            <g transform="matrix(12,0,0,12,259.209,145.758)">
                <path d="M0.427,-0.204L0.122,-0.204C0.123,-0.154 0.135,-0.118 0.159,-0.095C0.182,-0.072 0.213,-0.061 0.25,-0.061C0.277,-0.061 0.3,-0.064 0.32,-0.071C0.339,-0.078 0.361,-0.088 0.385,-0.102L0.418,-0.041C0.363,-0.006 0.306,0.012 0.246,0.012C0.182,0.012 0.131,-0.006 0.093,-0.042C0.054,-0.077 0.035,-0.134 0.035,-0.211C0.035,-0.255 0.043,-0.295 0.059,-0.331C0.075,-0.367 0.099,-0.396 0.131,-0.418C0.162,-0.439 0.201,-0.45 0.247,-0.45C0.286,-0.45 0.319,-0.442 0.346,-0.427C0.373,-0.411 0.394,-0.389 0.408,-0.362C0.422,-0.335 0.429,-0.303 0.429,-0.268L0.427,-0.204ZM0.247,-0.383C0.212,-0.383 0.185,-0.373 0.166,-0.352C0.146,-0.331 0.133,-0.303 0.127,-0.267L0.345,-0.267L0.345,-0.271C0.345,-0.308 0.337,-0.336 0.32,-0.355C0.303,-0.374 0.278,-0.383 0.247,-0.383Z" style="fill:rgb(67,181,80);fill-rule:nonzero;"/>
            </g>
        </g>
        <g transform="matrix(1.03328,0,0,1.02153,-130.313,106.938)">
            <g transform="matrix(12,0,0,12,217.785,145.758)">
                <path d="M0.241,0.012C0.178,0.012 0.128,-0.006 0.091,-0.041C0.054,-0.076 0.035,-0.131 0.035,-0.208C0.035,-0.263 0.046,-0.309 0.067,-0.345C0.088,-0.382 0.116,-0.408 0.15,-0.425C0.183,-0.442 0.219,-0.45 0.257,-0.45C0.301,-0.45 0.347,-0.437 0.395,-0.412L0.363,-0.346C0.34,-0.357 0.32,-0.365 0.303,-0.37C0.285,-0.375 0.268,-0.377 0.25,-0.377C0.211,-0.377 0.18,-0.362 0.158,-0.333C0.136,-0.303 0.125,-0.261 0.125,-0.208C0.125,-0.156 0.136,-0.119 0.159,-0.096C0.181,-0.073 0.211,-0.062 0.249,-0.062C0.272,-0.062 0.292,-0.066 0.311,-0.073C0.329,-0.08 0.349,-0.089 0.371,-0.102L0.405,-0.041C0.38,-0.025 0.355,-0.012 0.329,-0.003C0.302,0.007 0.273,0.012 0.241,0.012Z" style="fill:rgb(56,137,255);fill-rule:nonzero;"/>
            </g>
            <g transform="matrix(12,0,0,12,222.813,145.758)">
                <path d="M0.245,0.012C0.198,0.012 0.159,0.002 0.128,-0.019C0.097,-0.039 0.073,-0.067 0.058,-0.102C0.043,-0.137 0.035,-0.176 0.035,-0.22C0.035,-0.273 0.045,-0.317 0.065,-0.352C0.085,-0.386 0.112,-0.411 0.146,-0.427C0.18,-0.442 0.219,-0.45 0.262,-0.45C0.309,-0.45 0.348,-0.44 0.379,-0.42C0.41,-0.399 0.434,-0.372 0.449,-0.337C0.464,-0.302 0.472,-0.263 0.472,-0.219C0.472,-0.165 0.462,-0.121 0.442,-0.086C0.422,-0.052 0.395,-0.027 0.361,-0.012C0.327,0.004 0.288,0.012 0.245,0.012ZM0.253,-0.058C0.339,-0.058 0.382,-0.112 0.382,-0.22C0.382,-0.269 0.372,-0.308 0.35,-0.337C0.33,-0.366 0.298,-0.38 0.256,-0.38C0.209,-0.38 0.176,-0.366 0.156,-0.338C0.135,-0.309 0.125,-0.27 0.125,-0.22C0.125,-0.171 0.136,-0.131 0.157,-0.102C0.178,-0.073 0.21,-0.058 0.253,-0.058Z" style="fill:rgb(56,137,255);fill-rule:nonzero;"/>
            </g>
            <g transform="matrix(12,0,0,12,228.897,145.758)">
                <path d="M0.427,-0.204L0.122,-0.204C0.123,-0.154 0.135,-0.118 0.159,-0.095C0.182,-0.072 0.213,-0.061 0.25,-0.061C0.277,-0.061 0.3,-0.064 0.32,-0.071C0.339,-0.078 0.361,-0.088 0.385,-0.102L0.418,-0.041C0.363,-0.006 0.306,0.012 0.246,0.012C0.182,0.012 0.131,-0.006 0.093,-0.042C0.054,-0.077 0.035,-0.134 0.035,-0.211C0.035,-0.255 0.043,-0.295 0.059,-0.331C0.075,-0.367 0.099,-0.396 0.131,-0.418C0.162,-0.439 0.201,-0.45 0.247,-0.45C0.286,-0.45 0.319,-0.442 0.346,-0.427C0.373,-0.411 0.394,-0.389 0.408,-0.362C0.422,-0.335 0.429,-0.303 0.429,-0.268L0.427,-0.204ZM0.247,-0.383C0.212,-0.383 0.185,-0.373 0.166,-0.352C0.146,-0.331 0.133,-0.303 0.127,-0.267L0.345,-0.267L0.345,-0.271C0.345,-0.308 0.337,-0.336 0.32,-0.355C0.303,-0.374 0.278,-0.383 0.247,-0.383Z" style="fill:rgb(56,137,255);fill-rule:nonzero;"/>
            </g>
            <g transform="matrix(12,0,0,12,234.465,145.758)">
                <path d="M0.261,-0.622C0.236,-0.622 0.217,-0.614 0.204,-0.598C0.192,-0.581 0.186,-0.558 0.186,-0.528L0.186,-0.438L0.322,-0.438L0.313,-0.37L0.186,-0.37L0.186,-0L0.1,-0L0.1,-0.37L0.02,-0.37L0.02,-0.438L0.1,-0.438L0.1,-0.526C0.1,-0.559 0.106,-0.589 0.119,-0.614C0.132,-0.639 0.15,-0.659 0.173,-0.673C0.197,-0.687 0.225,-0.694 0.257,-0.694C0.294,-0.694 0.327,-0.688 0.358,-0.677L0.336,-0.609C0.311,-0.618 0.286,-0.622 0.261,-0.622Z" style="fill:rgb(56,137,255);fill-rule:nonzero;"/>
            </g>
            <g transform="matrix(12,0,0,12,237.861,145.758)">
                <rect x="0.05" y="0.077" width="0.44" height="0.076" style="fill:rgb(56,137,255);fill-rule:nonzero;"/>
            </g>
            <g transform="matrix(12,0,0,12,244.341,145.758)">
                <path d="M0.07,-0L0.07,-0.688L0.156,-0.698L0.156,-0L0.07,-0Z" style="fill:rgb(56,137,255);fill-rule:nonzero;"/>
            </g>
            <g transform="matrix(12,0,0,12,247.053,145.758)">
                <path d="M0.245,0.012C0.198,0.012 0.159,0.002 0.128,-0.019C0.097,-0.039 0.073,-0.067 0.058,-0.102C0.043,-0.137 0.035,-0.176 0.035,-0.22C0.035,-0.273 0.045,-0.317 0.065,-0.352C0.085,-0.386 0.112,-0.411 0.146,-0.427C0.18,-0.442 0.219,-0.45 0.262,-0.45C0.309,-0.45 0.348,-0.44 0.379,-0.42C0.41,-0.399 0.434,-0.372 0.449,-0.337C0.464,-0.302 0.472,-0.263 0.472,-0.219C0.472,-0.165 0.462,-0.121 0.442,-0.086C0.422,-0.052 0.395,-0.027 0.361,-0.012C0.327,0.004 0.288,0.012 0.245,0.012ZM0.253,-0.058C0.339,-0.058 0.382,-0.112 0.382,-0.22C0.382,-0.269 0.372,-0.308 0.35,-0.337C0.33,-0.366 0.298,-0.38 0.256,-0.38C0.209,-0.38 0.176,-0.366 0.156,-0.338C0.135,-0.309 0.125,-0.27 0.125,-0.22C0.125,-0.171 0.136,-0.131 0.157,-0.102C0.178,-0.073 0.21,-0.058 0.253,-0.058Z" style="fill:rgb(56,137,255);fill-rule:nonzero;"/>
            </g>
            <g transform="matrix(12,0,0,12,253.017,145.758)">
                <path d="M0.656,-0.438L0.656,-0.432L0.524,-0L0.438,-0L0.358,-0.268C0.347,-0.305 0.34,-0.332 0.337,-0.347C0.334,-0.332 0.328,-0.306 0.317,-0.268L0.237,-0L0.156,-0L0.012,-0.432L0.012,-0.438L0.106,-0.438L0.185,-0.163C0.188,-0.152 0.193,-0.131 0.2,-0.102C0.204,-0.125 0.209,-0.146 0.214,-0.163L0.294,-0.438L0.388,-0.438L0.468,-0.163C0.473,-0.144 0.479,-0.121 0.485,-0.092C0.49,-0.12 0.494,-0.144 0.499,-0.163L0.572,-0.438L0.656,-0.438Z" style="fill:rgb(56,137,255);fill-rule:nonzero;"/>
            </g>
        </g>
        <g transform="matrix(1.03328,0,0,1.02153,-95.5688,-102.089)">
            <g transform="matrix(12,0,0,12,217.785,145.758)">
                <path d="M0.241,0.012C0.178,0.012 0.128,-0.006 0.091,-0.041C0.054,-0.076 0.035,-0.131 0.035,-0.208C0.035,-0.263 0.046,-0.309 0.067,-0.345C0.088,-0.382 0.116,-0.408 0.15,-0.425C0.183,-0.442 0.219,-0.45 0.257,-0.45C0.301,-0.45 0.347,-0.437 0.395,-0.412L0.363,-0.346C0.34,-0.357 0.32,-0.365 0.303,-0.37C0.285,-0.375 0.268,-0.377 0.25,-0.377C0.211,-0.377 0.18,-0.362 0.158,-0.333C0.136,-0.303 0.125,-0.261 0.125,-0.208C0.125,-0.156 0.136,-0.119 0.159,-0.096C0.181,-0.073 0.211,-0.062 0.249,-0.062C0.272,-0.062 0.292,-0.066 0.311,-0.073C0.329,-0.08 0.349,-0.089 0.371,-0.102L0.405,-0.041C0.38,-0.025 0.355,-0.012 0.329,-0.003C0.302,0.007 0.273,0.012 0.241,0.012Z" style="fill:rgb(56,137,255);fill-rule:nonzero;"/>
            </g>
            <g transform="matrix(12,0,0,12,222.813,145.758)">
                <path d="M0.245,0.012C0.198,0.012 0.159,0.002 0.128,-0.019C0.097,-0.039 0.073,-0.067 0.058,-0.102C0.043,-0.137 0.035,-0.176 0.035,-0.22C0.035,-0.273 0.045,-0.317 0.065,-0.352C0.085,-0.386 0.112,-0.411 0.146,-0.427C0.18,-0.442 0.219,-0.45 0.262,-0.45C0.309,-0.45 0.348,-0.44 0.379,-0.42C0.41,-0.399 0.434,-0.372 0.449,-0.337C0.464,-0.302 0.472,-0.263 0.472,-0.219C0.472,-0.165 0.462,-0.121 0.442,-0.086C0.422,-0.052 0.395,-0.027 0.361,-0.012C0.327,0.004 0.288,0.012 0.245,0.012ZM0.253,-0.058C0.339,-0.058 0.382,-0.112 0.382,-0.22C0.382,-0.269 0.372,-0.308 0.35,-0.337C0.33,-0.366 0.298,-0.38 0.256,-0.38C0.209,-0.38 0.176,-0.366 0.156,-0.338C0.135,-0.309 0.125,-0.27 0.125,-0.22C0.125,-0.171 0.136,-0.131 0.157,-0.102C0.178,-0.073 0.21,-0.058 0.253,-0.058Z" style="fill:rgb(56,137,255);fill-rule:nonzero;"/>
            </g>
            <g transform="matrix(12,0,0,12,228.897,145.758)">
                <path d="M0.427,-0.204L0.122,-0.204C0.123,-0.154 0.135,-0.118 0.159,-0.095C0.182,-0.072 0.213,-0.061 0.25,-0.061C0.277,-0.061 0.3,-0.064 0.32,-0.071C0.339,-0.078 0.361,-0.088 0.385,-0.102L0.418,-0.041C0.363,-0.006 0.306,0.012 0.246,0.012C0.182,0.012 0.131,-0.006 0.093,-0.042C0.054,-0.077 0.035,-0.134 0.035,-0.211C0.035,-0.255 0.043,-0.295 0.059,-0.331C0.075,-0.367 0.099,-0.396 0.131,-0.418C0.162,-0.439 0.201,-0.45 0.247,-0.45C0.286,-0.45 0.319,-0.442 0.346,-0.427C0.373,-0.411 0.394,-0.389 0.408,-0.362C0.422,-0.335 0.429,-0.303 0.429,-0.268L0.427,-0.204ZM0.247,-0.383C0.212,-0.383 0.185,-0.373 0.166,-0.352C0.146,-0.331 0.133,-0.303 0.127,-0.267L0.345,-0.267L0.345,-0.271C0.345,-0.308 0.337,-0.336 0.32,-0.355C0.303,-0.374 0.278,-0.383 0.247,-0.383Z" style="fill:rgb(56,137,255);fill-rule:nonzero;"/>
            </g>
            <g transform="matrix(12,0,0,12,234.465,145.758)">
                <path d="M0.261,-0.622C0.236,-0.622 0.217,-0.614 0.204,-0.598C0.192,-0.581 0.186,-0.558 0.186,-0.528L0.186,-0.438L0.322,-0.438L0.313,-0.37L0.186,-0.37L0.186,-0L0.1,-0L0.1,-0.37L0.02,-0.37L0.02,-0.438L0.1,-0.438L0.1,-0.526C0.1,-0.559 0.106,-0.589 0.119,-0.614C0.132,-0.639 0.15,-0.659 0.173,-0.673C0.197,-0.687 0.225,-0.694 0.257,-0.694C0.294,-0.694 0.327,-0.688 0.358,-0.677L0.336,-0.609C0.311,-0.618 0.286,-0.622 0.261,-0.622Z" style="fill:rgb(56,137,255);fill-rule:nonzero;"/>
            </g>
            <g transform="matrix(12,0,0,12,237.861,145.758)">
                <rect x="0.05" y="0.077" width="0.44" height="0.076" style="fill:rgb(56,137,255);fill-rule:nonzero;"/>
            </g>
            <g transform="matrix(12,0,0,12,244.341,145.758)">
                <path d="M0.07,-0L0.07,-0.688L0.156,-0.698L0.156,-0L0.07,-0Z" style="fill:rgb(56,137,255);fill-rule:nonzero;"/>
            </g>
            <g transform="matrix(12,0,0,12,247.053,145.758)">
                <path d="M0.245,0.012C0.198,0.012 0.159,0.002 0.128,-0.019C0.097,-0.039 0.073,-0.067 0.058,-0.102C0.043,-0.137 0.035,-0.176 0.035,-0.22C0.035,-0.273 0.045,-0.317 0.065,-0.352C0.085,-0.386 0.112,-0.411 0.146,-0.427C0.18,-0.442 0.219,-0.45 0.262,-0.45C0.309,-0.45 0.348,-0.44 0.379,-0.42C0.41,-0.399 0.434,-0.372 0.449,-0.337C0.464,-0.302 0.472,-0.263 0.472,-0.219C0.472,-0.165 0.462,-0.121 0.442,-0.086C0.422,-0.052 0.395,-0.027 0.361,-0.012C0.327,0.004 0.288,0.012 0.245,0.012ZM0.253,-0.058C0.339,-0.058 0.382,-0.112 0.382,-0.22C0.382,-0.269 0.372,-0.308 0.35,-0.337C0.33,-0.366 0.298,-0.38 0.256,-0.38C0.209,-0.38 0.176,-0.366 0.156,-0.338C0.135,-0.309 0.125,-0.27 0.125,-0.22C0.125,-0.171 0.136,-0.131 0.157,-0.102C0.178,-0.073 0.21,-0.058 0.253,-0.058Z" style="fill:rgb(56,137,255);fill-rule:nonzero;"/>
            </g>
            <g transform="matrix(12,0,0,12,253.017,145.758)">
                <path d="M0.656,-0.438L0.656,-0.432L0.524,-0L0.438,-0L0.358,-0.268C0.347,-0.305 0.34,-0.332 0.337,-0.347C0.334,-0.332 0.328,-0.306 0.317,-0.268L0.237,-0L0.156,-0L0.012,-0.432L0.012,-0.438L0.106,-0.438L0.185,-0.163C0.188,-0.152 0.193,-0.131 0.2,-0.102C0.204,-0.125 0.209,-0.146 0.214,-0.163L0.294,-0.438L0.388,-0.438L0.468,-0.163C0.473,-0.144 0.479,-0.121 0.485,-0.092C0.49,-0.12 0.494,-0.144 0.499,-0.163L0.572,-0.438L0.656,-0.438Z" style="fill:rgb(56,137,255);fill-rule:nonzero;"/>
            </g>
        </g>
    </g>
</svg>
